<svg width="17" height="17" viewBox="0 0 17 17" fill="none" xmlns="http://www.w3.org/2000/svg">
<path d="M11.3252 4.25L12.4343 3.7145L12.9443 2.55L13.4543 3.7145L14.5633 4.25L13.4543 4.7855L12.9443 5.95L12.4343 4.7855L11.3252 4.25ZM15.381 10.2C16.2714 10.2 17 9.435 17 8.5C17 7.565 15.381 5.1 15.381 5.1C15.381 5.1 13.7619 7.565 13.7619 8.5C13.7619 9.435 14.4905 10.2 15.381 10.2ZM0 17H3.2381V7.65H0V17ZM6.67048 6.375L11.3333 8.2025V7.65C11.3335 6.67025 11.0113 5.72051 10.4212 4.96153C9.83118 4.20255 9.00949 3.68095 8.09524 3.485V1.7H9.71429C10.1757 1.7 10.6048 1.8445 10.969 2.0825L12.1267 0.867C11.4353 0.307111 10.5874 0.00235957 9.71429 0H5.2619V1.7H6.47619V3.4935C5.03524 3.808 3.88571 4.9215 3.44048 6.375H6.67048ZM17 12.75H9.71429L8.02238 12.1295L8.28952 11.3305L9.71429 11.9H12.9524V10.2L6.45191 7.65H4.85714V15.317L10.5238 17L17 14.45V12.75Z" fill="#EFB91C"/>
</svg>
