<svg width="16" height="16" viewBox="0 0 16 16" fill="none" xmlns="http://www.w3.org/2000/svg">
<path d="M10.8 7.2C11.1333 7.2 11.4168 7.08346 11.6504 6.8504C11.884 6.61733 12.0005 6.33386 12 6C11.9995 5.66613 11.8829 5.38293 11.6504 5.1504C11.4179 4.91787 11.1344 4.80107 10.8 4.8C10.4656 4.79893 10.1824 4.91573 9.95039 5.1504C9.71839 5.38507 9.60159 5.66826 9.59999 6C9.59839 6.33173 9.71519 6.6152 9.95039 6.8504C10.1856 7.0856 10.4688 7.20213 10.8 7.2ZM5.2 7.2C5.53333 7.2 5.8168 7.08346 6.0504 6.8504C6.284 6.61733 6.40053 6.33386 6.4 6C6.39946 5.66613 6.28293 5.38293 6.0504 5.1504C5.81786 4.91787 5.5344 4.80107 5.2 4.8C4.8656 4.79893 4.5824 4.91573 4.3504 5.1504C4.1184 5.38507 4.0016 5.66826 4 6C3.9984 6.33173 4.1152 6.6152 4.3504 6.8504C4.5856 7.0856 4.8688 7.20213 5.2 7.2ZM8 16C6.89333 16 5.85333 15.7899 4.88 15.3696C3.90667 14.9493 3.06 14.3795 2.34 13.66C1.62 12.9405 1.05013 12.0939 0.630401 11.12C0.210668 10.1461 0.000534346 9.10613 1.01266e-06 8C-0.00053232 6.89386 0.209601 5.85387 0.630401 4.88C1.0512 3.90613 1.62107 3.05947 2.34 2.34C3.05893 1.62053 3.9056 1.05067 4.88 0.6304C5.8544 0.210133 6.8944 0 8 0C9.10559 0 10.1456 0.210133 11.12 0.6304C12.0944 1.05067 12.9411 1.62053 13.66 2.34C14.3789 3.05947 14.9491 3.90613 15.3704 4.88C15.7917 5.85387 16.0016 6.89386 16 8C15.9984 9.10613 15.7883 10.1461 15.3696 11.12C14.9509 12.0939 14.3811 12.9405 13.66 13.66C12.9389 14.3795 12.0923 14.9496 11.12 15.3704C10.1477 15.7912 9.10773 16.0011 8 16ZM8 12.4C8.77333 12.4 9.48666 12.2133 10.14 11.84C10.7933 11.4667 11.32 10.96 11.72 10.32C11.8 10.16 11.7933 10 11.7 9.84C11.6067 9.68 11.4667 9.6 11.28 9.6H4.72C4.53333 9.6 4.39333 9.68 4.3 9.84C4.20667 10 4.2 10.16 4.28 10.32C4.68 10.96 5.21013 11.4667 5.8704 11.84C6.53066 12.2133 7.24053 12.4 8 12.4Z" fill="#EFB91C"/>
</svg>
