<svg width="12" height="15" viewBox="0 0 12 15" fill="none" xmlns="http://www.w3.org/2000/svg">
<path d="M12 8.25V13.5C12 13.8978 11.842 14.2794 11.5607 14.5607C11.2794 14.842 10.8978 15 10.5 15C10.1022 15 9.72064 14.842 9.43934 14.5607C9.15804 14.2794 9 13.8978 9 13.5V9.75H7.5V2.25C7.5 1.65326 7.73705 1.08097 8.15901 0.65901C8.58097 0.237053 9.15326 0 9.75 0L12 0V8.25ZM1.5 7.5C1.10218 7.5 0.720644 7.34196 0.43934 7.06066C0.158035 6.77936 0 6.39782 0 6V0.75C0 0.551088 0.0790176 0.360322 0.21967 0.21967C0.360322 0.0790176 0.551088 0 0.75 0C0.948912 0 1.13968 0.0790176 1.28033 0.21967C1.42098 0.360322 1.5 0.551088 1.5 0.75V3.75H2.25V0.75C2.25 0.551088 2.32902 0.360322 2.46967 0.21967C2.61032 0.0790176 2.80109 0 3 0C3.19891 0 3.38968 0.0790176 3.53033 0.21967C3.67098 0.360322 3.75 0.551088 3.75 0.75V3.75H4.5V0.75C4.5 0.551088 4.57902 0.360322 4.71967 0.21967C4.86032 0.0790176 5.05109 0 5.25 0C5.44891 0 5.63968 0.0790176 5.78033 0.21967C5.92098 0.360322 6 0.551088 6 0.75V6C6 6.39782 5.84196 6.77936 5.56066 7.06066C5.27936 7.34196 4.89782 7.5 4.5 7.5V13.5C4.5 13.8978 4.34196 14.2794 4.06066 14.5607C3.77936 14.842 3.39782 15 3 15C2.60218 15 2.22064 14.842 1.93934 14.5607C1.65804 14.2794 1.5 13.8978 1.5 13.5V7.5Z" fill="#EFB91C"/>
</svg>
