<svg width="20" height="19" viewBox="0 0 20 19" fill="none" xmlns="http://www.w3.org/2000/svg">
<path d="M18 -1.74846e-07L17 -2.62268e-07L17 13L18 13C18.5304 13 19.0391 12.7893 19.4142 12.4142C19.7893 12.0391 20 11.5304 20 11L20 2C20 1.46957 19.7893 0.960859 19.4142 0.585787C19.0391 0.210714 18.5304 -1.28474e-07 18 -1.74846e-07ZM2 13L9 13L7.878 16.368C7.77789 16.6686 7.75061 16.9887 7.79843 17.3018C7.84624 17.615 7.96778 17.9124 8.15302 18.1694C8.33827 18.4264 8.58192 18.6358 8.86392 18.7802C9.14591 18.9246 9.45818 18.9999 9.775 19L10 19L15 13.562L15 -4.37114e-07L4 -1.39876e-06L0.0880003 8.596L8.74228e-07 9L6.99382e-07 11C6.5301e-07 11.5304 0.210715 12.0391 0.585787 12.4142C0.96086 12.7893 1.46957 13 2 13Z" fill="#EFB91C"/>
</svg>
